<svg width="352" height="358" viewBox="0 0 352 358" fill="none" xmlns="http://www.w3.org/2000/svg">
    <rect y="3" width="352" height="352" fill="rgb(234 88 12)" />
    <path
        d="M170.28 289.88C159.72 289.88 149.736 288.92 140.328 287C130.92 284.888 122.76 282.392 115.848 279.512C108.936 276.632 103.848 273.944 100.584 271.448V219.896C109.8 225.08 121.416 229.976 135.432 234.584C149.448 239 165 241.208 182.088 241.208C189 241.208 194.088 240.344 197.352 238.616C200.808 236.696 202.536 233.432 202.536 228.824C202.536 223.832 198.696 219.704 191.016 216.44C183.528 212.984 171.624 208.76 155.304 203.768C142.632 199.736 131.784 195.32 122.76 190.52C113.928 185.528 107.112 179.384 102.312 172.088C97.704 164.6 95.4 155.096 95.4 143.576C95.4 131.672 98.472 120.92 104.616 111.32C110.76 101.72 120.36 94.136 133.416 88.568C146.472 83 163.176 80.216 183.528 80.216C189.672 80.216 196.2 80.504 203.112 81.08C210.216 81.464 215.88 82.04 220.104 82.808L252.648 106.712L241.416 141.848L173.16 123.128C165.288 123.128 159.432 124.76 155.592 128.024C151.944 131.288 150.12 135.224 150.12 139.832C150.12 145.4 153.288 149.816 159.624 153.08C165.96 156.344 175.08 159.608 186.984 162.872C205.8 168.056 220.392 173.816 230.76 180.152C241.128 186.488 248.424 193.688 252.648 201.752C256.872 209.624 258.984 218.552 258.984 228.536C258.984 246.968 251.592 261.848 236.808 273.176C222.024 284.312 199.848 289.88 170.28 289.88Z"
        fill="white" />
</svg>