<svg width="2785" height="965" viewBox="0 0 2785 965" fill="none" xmlns="http://www.w3.org/2000/svg">
    <path
        d="M1.86454 792.211C123.267 783.062 216.287 769.131 280.924 750.417C283.824 731.287 285.275 709.663 285.275 685.543C285.275 661.007 284.653 638.343 283.41 617.55L62.7728 537.081C47.8565 531.675 36.6693 521.903 29.2111 507.763C21.753 493.208 16.1593 474.287 12.4303 450.999C4.14342 399.848 0 360.757 0 333.727C0 290.893 1.03586 259.912 3.10757 240.782C6.4223 206.682 28.1753 183.602 68.3664 171.542C162.422 137.441 273.051 109.371 400.254 87.3303L438.167 237.663L358.613 248.891C279.888 260.535 214.422 273.011 162.215 286.319C160.558 297.131 159.729 311.27 159.729 328.736C159.729 364.5 160.558 392.571 162.215 412.948L391.553 514.001C416.828 524.814 433.816 543.735 442.517 570.766C445.003 578.667 446.246 584.281 446.246 587.608C446.246 590.935 445.832 598.213 445.003 609.441C444.589 620.253 443.76 634.808 442.517 653.106C439.203 702.177 435.059 744.387 430.087 779.735C425.115 814.667 412.892 838.579 393.418 851.471C374.358 863.946 350.948 875.175 323.187 885.155C295.84 894.72 266.215 903.453 234.31 911.354C182.518 923.414 113.944 935.682 28.5896 948.158L1.86454 792.211Z"
        fill="rgb(234 88 12)" />
    <path
        d="M902.437 573.885C902.437 514.417 899.951 470.96 894.979 443.513H851.473C826.612 443.513 807.345 446.008 793.672 450.999C771.712 458.484 754.103 465.346 740.844 471.584L731.521 912.602L596.653 920.087C595.41 759.982 593.131 638.967 589.816 557.043C584.844 446.84 582.358 351.608 582.358 271.348C582.358 217.286 583.394 137.233 585.465 31.1894L734.007 0L740.844 394.858L839.664 306.904H977.64C992.971 306.904 1007.06 312.726 1019.9 324.37C1042.69 345.579 1054.5 364.292 1055.33 380.511C1056.16 396.729 1056.57 413.156 1056.57 429.79V478.445C1056.57 534.17 1055.74 574.093 1054.09 598.213L1034.82 941.92L896.843 965L902.437 573.885Z"
        fill="rgb(234 88 12)" />
    <path
        d="M1252.35 92.9444L1404 64.8739L1406.48 242.03L1377.27 640.63L1258.56 633.145L1252.35 92.9444ZM1392.19 752.912C1396.75 768.715 1399.03 786.181 1399.03 805.31C1399.03 824.024 1398.4 839.827 1397.16 852.718C1395.92 865.61 1394.47 877.67 1392.81 888.898C1388.67 912.602 1383.9 929.444 1378.52 939.425L1239.92 923.83C1243.65 895.136 1245.93 863.53 1246.76 829.014C1248 794.082 1249.03 771.21 1249.86 760.398L1392.19 752.912Z"
        fill="rgb(234 88 12)" />
    <path
        d="M1618.42 338.717L1763.85 313.142L1767.58 431.038V502.149L1947.2 469.089C1972.48 428.75 1985.11 382.798 1985.11 331.231C1985.11 317.508 1983.87 304.616 1981.38 292.557C1879.46 263.862 1735.26 249.515 1548.81 249.515L1571.19 101.054C1755.57 103.549 1913.43 118.936 2044.78 147.214C2064.25 152.204 2085.8 173.621 2109.42 211.464C2131.79 247.228 2142.98 272.18 2142.98 286.319C2142.98 300.458 2141.94 315.429 2139.87 331.231C2137.8 346.618 2134.69 363.253 2130.55 381.134C2115.22 447.256 2098.64 488.426 2080.83 504.644C2069.22 515.457 2036.49 529.18 1982.63 545.815L1981.38 550.805L2105.06 606.946C2110.87 631.897 2113.77 656.641 2113.77 681.176C2113.77 705.296 2112.32 726.505 2109.42 744.803C2106.51 763.101 2102.99 780.359 2098.85 796.577C2084.76 847.312 2069.64 878.086 2053.48 888.898C2027.79 905.948 1930.21 922.167 1760.75 937.553C1708.13 942.128 1666.69 944.831 1636.44 945.663L1618.42 338.717ZM1776.28 814.043C1852.94 807.39 1908.87 798.449 1944.09 787.22C1956.94 744.803 1963.36 712.99 1963.36 691.781C1963.36 670.156 1962.74 653.938 1961.5 643.125C1960.67 631.897 1957.14 623.788 1950.93 618.798L1772.56 600.708L1776.28 814.043Z"
        fill="rgb(234 88 12)" />
    <path d="M2282.82 29.9418L2436.95 1.24758L2441.3 450.999L2422.04 920.087L2290.9 931.315L2282.82 29.9418Z"
        fill="rgb(234 88 12)" />
    <path
        d="M2630.86 92.9444L2782.51 64.8739L2785 242.03L2755.79 640.63L2637.08 633.145L2630.86 92.9444ZM2770.71 752.912C2775.26 768.715 2777.54 786.181 2777.54 805.31C2777.54 824.024 2776.92 839.827 2775.68 852.718C2774.43 865.61 2772.98 877.67 2771.33 888.898C2767.18 912.602 2762.42 929.444 2757.03 939.425L2618.43 923.83C2622.16 895.136 2624.44 863.53 2625.27 829.014C2626.51 794.082 2627.55 771.21 2628.38 760.398L2770.71 752.912Z"
        fill="rgb(234 88 12)" />
</svg>